# xmcd
# Track frame offsets:
# 150
# 14307
# 26945
# 42170
# 62902
# 73255
# 88427
# 106957
# 121932
# 138165
#
# Disc length: 2028 seconds
# Revision: 0
# Processed by: cddbd v1.4PL0 Copyright (c) Steve Scherf et al.
# Submitted via: VisiTrax 2.9.5.180 - For more info visit www.synapsa.com
#
DISCID=8f07ea0a
DTITLE=Patty Booker - I don't need all that
DYEAR=1999
DGENRE=
TTITLE0=Hell yea, I cheated
TTITLE1=I don't need all that
TTITLE2=Sleepin' W/2 men
TTITLE3=Songbird
TTITLE4=Fist city
TTITLE5=No matter what he say
TTITLE6=Let's talk it out
TTITLE7=I didn't want to go
TTITLE8=PMS
TTITLE9=River of love
EXTD=
EXTT0=
EXTT1=
EXTT2=
EXTT3=
EXTT4=
EXTT5=
EXTT6=
EXTT7=
EXTT8=
EXTT9=
PLAYORDER=
